<svg id="Layer_1" data-name="Layer 1" xmlns="http://www.w3.org/2000/svg" xmlns:xlink="http://www.w3.org/1999/xlink" viewBox="0 0 443 344"><defs><style>.cls-1{fill:none;}.cls-2{clip-path:url(#clip-path);}.cls-3{fill:#333;}.cls-4{fill:#663f25;}.cls-5{clip-path:url(#clip-path-2);}.cls-6{opacity:0.2;}.cls-7{fill:#6785a2;}.cls-8{fill:#835534;}.cls-9{fill:#593820;}.cls-10{fill:#704628;}.cls-11{fill:#a7a8ab;}.cls-12{fill:#d6a828;}.cls-13{fill:#d0912a;}.cls-14{fill:#e6b721;}.cls-15{fill:#e29f26;}.cls-16{fill:#d61e3c;}.cls-17{clip-path:url(#clip-path-3);}.cls-18{opacity:0.48;}.cls-19{fill:#221f1f;}.cls-20{clip-path:url(#clip-path-4);}.cls-21{opacity:0.1;}.cls-22{clip-path:url(#clip-path-5);}.cls-23{fill:#981b3c;}</style><clipPath id="clip-path"><rect class="cls-1" x="-87" y="2.89" width="585.33" height="338.88"/></clipPath><clipPath id="clip-path-2"><rect class="cls-1" x="19.42" y="258.44" width="200.55" height="17.02"/></clipPath><clipPath id="clip-path-3"><rect class="cls-1" x="55.55" y="96.86" width="65.33" height="62.67"/></clipPath><clipPath id="clip-path-4"><rect class="cls-1" x="32.11" y="60.23" width="26.51" height="148.4"/></clipPath><clipPath id="clip-path-5"><rect class="cls-1" x="70.1" y="99.03" width="156.83" height="101.29"/></clipPath></defs><title>Sahyadri gce</title><g class="cls-2"><g id="g20"><path id="path22" class="cls-3" d="M232.49,164.57H214.18a.85.85,0,0,0-.85.86v8.95a.85.85,0,0,0,.85.85h7.14v11.12a21.44,21.44,0,0,1-6,.55c-5.23,0-12.54-1.91-12.54-18s7.61-18.18,14.75-18.18A29,29,0,0,1,228,152.35a.87.87,0,0,0,1-.84l2-8.65a.8.8,0,0,0-.33-.67c-.68-.49-4.88-2.84-15.49-2.84-12.22,0-24.76,5.2-24.76,30.2s14.35,28.72,26.45,28.72c10,0,16.09-4.28,16.09-4.28a.74.74,0,0,0,.28-.65V165.43a.86.86,0,0,0-.86-.86"/></g><g id="g24"><path id="path26" class="cls-3" d="M326.83,142.35a.84.84,0,0,0-.84-.86H315.68a.86.86,0,0,0-.86.86v19.92H298.76V142.35a.85.85,0,0,0-.85-.86H287.6a.85.85,0,0,0-.85.86v53.94a.86.86,0,0,0,.85.86h10.31a.86.86,0,0,0,.85-.86V173.22h16.07l0,23.07a.86.86,0,0,0,.85.86H326a.85.85,0,0,0,.85-.86Z"/></g><g id="g28"><path id="path30" class="cls-3" d="M251.94,149.43a6.65,6.65,0,1,0-6.65,6.71,6.67,6.67,0,0,0,6.65-6.71"/></g><g id="g32"><path id="path34" class="cls-3" d="M251.2,184.91V160a.86.86,0,0,0-.85-.86H240.08a1,1,0,0,0-.9,1v35.67c0,1.05.66,1.36,1.5,1.36h9.26c1,0,1.26-.5,1.26-1.38Z"/></g><g id="g36"><path id="path38" class="cls-3" d="M366,159.23H355.78a.86.86,0,0,0-.85.87v26.44a11.57,11.57,0,0,1-6.29,1.9c-3.69,0-4.66-1.67-4.66-5.28V160.1a.87.87,0,0,0-.86-.87H332.74a.86.86,0,0,0-.85.87v24.81c0,10.72,6,13.35,14.2,13.35a24,24,0,0,0,12.19-3.73,21.32,21.32,0,0,0,.38,2.2.89.89,0,0,0,.75.46l6.6,0a.86.86,0,0,0,.86-.86V160.1a.86.86,0,0,0-.85-.87"/></g><g id="g40"><path id="path42" class="cls-3" d="M389.93,188.41a12.24,12.24,0,0,1-5.95-1.72V169.61a13.63,13.63,0,0,1,5.28-1.71c3.69-.33,7.24.78,7.24,9.57,0,9.26-1.61,11.09-6.57,10.94M394,158a19.3,19.3,0,0,0-9.77,2.59V142.35a.85.85,0,0,0-.85-.86H373a.85.85,0,0,0-.85.86v53.94a.86.86,0,0,0,.85.86h7.17a.86.86,0,0,0,.75-.46,16.5,16.5,0,0,0,.43-2.49s4.23,4,12.23,4c9.4,0,14.78-4.76,14.78-21.39S399.78,158,394,158"/></g><g id="g44"><path id="path46" class="cls-3" d="M280.83,159.15H273.1V148.93c0-.38-.2-.58-.65-.58H261.9c-.41,0-.63.18-.63.58v10.55s-5.28,1.28-5.63,1.38a.85.85,0,0,0-.62.82v6.63a.86.86,0,0,0,.85.87h5.4v15.95c0,11.86,8.32,13,13.93,13a23.3,23.3,0,0,0,6.13-1,.79.79,0,0,0,.49-.77v-7.3a.88.88,0,0,0-.86-.86c-.45,0-1.6.18-2.79.18-3.8,0-5.08-1.76-5.08-4V169.18h7.73a.86.86,0,0,0,.85-.87V160a.85.85,0,0,0-.85-.86"/></g><g id="g48"><path id="path50" class="cls-3" d="M218.55,229.64c-2.65.26-3.8,1.63-3.8,3.79,0,1.67.41,3.68,3.95,3.68a9,9,0,0,0,4.94-1.48v-6.48Zm.67-7.26a16.37,16.37,0,0,0-5.58.93v-2.23a14.88,14.88,0,0,1,5.58-1c5.58,0,7,2.53,7,6.25v12.73H224.8l-.56-1.49a9.76,9.76,0,0,1-5.62,1.86c-4.87,0-6.51-2.86-6.51-6s1.75-5.51,6.62-5.8l4.91-.3v-1c0-2.72-1-3.91-4.42-3.91"/></g><g id="g52"><path id="path54" class="cls-3" d="M253,225.54c0-2.42-1.42-3.16-3.54-3.16a9.63,9.63,0,0,0-5.06,1.23,7.81,7.81,0,0,1,.22,1.93v13.51h-2.6V225.54c0-2.42-1.41-3.16-3.53-3.16a9.35,9.35,0,0,0-4.84,1.12v15.55h-2.61v-18.6h1.46l.55,1.52a9.38,9.38,0,0,1,5.44-1.9c2.49,0,4.24.71,5.21,2.12a10.37,10.37,0,0,1,5.76-2.12c4,0,6.14,1.86,6.14,5.58v13.4H253Z"/></g><g id="g56"><path id="path58" class="cls-3" d="M273.13,229.75c0-3.69-.56-7.37-5-7.37a9.82,9.82,0,0,0-5.21,1.19v12.35a9.82,9.82,0,0,0,5.21,1.19c4.46,0,5-3.68,5-7.36M262.9,237.9v10.45h-2.61v-27.9h1.45l.56,1.52a10.67,10.67,0,0,1,5.81-1.9c6,0,7.62,4.32,7.62,9.68s-1.63,9.67-7.62,9.67a9.7,9.7,0,0,1-5.21-1.52"/></g><g id="g60"><path id="path62" class="cls-3" d="M282.62,234c0,2.42,1.41,3.16,3.72,3.16a9,9,0,0,0,5-1.19V220.45H294v18.6h-1.45l-.56-1.56a9.26,9.26,0,0,1-5.61,1.93c-4.43,0-6.33-2-6.33-5.58V220.45h2.61Z"/></g><g id="g64"><path id="path66" class="cls-3" d="M305,228.37c5.29.48,6.55,2.27,6.55,5.32,0,2.87-1.82,5.73-7.48,5.73a18.45,18.45,0,0,1-5.54-.93v-2.23a16.4,16.4,0,0,0,5.58.85c3.87,0,4.91-1.63,4.91-3.38s-.52-2.9-4.2-3.2c-5.4-.49-6.51-2.38-6.51-4.95s1.71-5.51,6.95-5.51a14.06,14.06,0,0,1,5.36.93v2.24a15.2,15.2,0,0,0-5.39-.86c-3.69,0-4.47,1.38-4.47,3.2,0,1.64.67,2.49,4.24,2.79"/></g><g id="g68"><path id="path70" class="cls-3" d="M431.22,228.37c5.28.48,6.55,2.27,6.55,5.32,0,2.87-1.82,5.73-7.48,5.73a18.39,18.39,0,0,1-5.54-.93v-2.23a16.4,16.4,0,0,0,5.58.85c3.87,0,4.91-1.63,4.91-3.38s-.52-2.9-4.2-3.2c-5.4-.49-6.52-2.38-6.52-4.95s1.72-5.51,7-5.51a14.06,14.06,0,0,1,5.36.93v2.24a15.22,15.22,0,0,0-5.4-.86c-3.68,0-4.46,1.38-4.46,3.2,0,1.64.67,2.49,4.24,2.79"/></g><g id="g72"><path id="path74" class="cls-3" d="M334,225.69H321.62v11h13.65v2.35H319.09V211.14h16.18v2.35H321.62v9.86H334Z"/></g><g id="g76"><path id="path78" class="cls-3" d="M339,239.05l6.89-9.56-6.52-9h3.09l4.91,7.29,4.92-7.29h3.08l-6.51,9,6.89,9.56h-3.09l-5.29-7.81-5.28,7.81Z"/></g><g id="g80"><path id="path82" class="cls-3" d="M372.48,229.75c0-3.69-.56-7.37-5-7.37a9.82,9.82,0,0,0-5.21,1.19v12.35a9.82,9.82,0,0,0,5.21,1.19c4.46,0,5-3.68,5-7.36m-10.23,8.15v10.45h-2.61v-27.9h1.45l.56,1.52a10.67,10.67,0,0,1,5.81-1.9c6,0,7.62,4.32,7.62,9.68s-1.63,9.67-7.62,9.67a9.7,9.7,0,0,1-5.21-1.52"/></g><g id="g84"><path id="path86" class="cls-3" d="M381,228.82h9.67c0-3.31-.19-6.44-4.47-6.44s-5.09,3.09-5.2,6.44m5.2-8.75c6.33,0,7.07,4.32,7.07,9.68v1.19H381c.14,3.23,1,6.17,5.2,6.17a14.23,14.23,0,0,0,6.14-1v2.23a15.05,15.05,0,0,1-6.14,1.12c-6.28,0-7.81-4.32-7.81-9.67s1.53-9.68,7.81-9.68"/></g><g id="g88"><path id="path90" class="cls-3" d="M408,222.68a7.06,7.06,0,0,0-2.23-.3,10.13,10.13,0,0,0-5.4,1.19v15.48h-2.6v-18.6h1.45l.56,1.56a10.1,10.1,0,0,1,6-1.94,13.74,13.74,0,0,1,2.23.19Z"/></g><g id="g92"><path id="path94" class="cls-3" d="M421.59,239.27a8.4,8.4,0,0,1-1.68.15c-3.08,0-6-1.41-6-5.06V222.49h-3.72v-1.15l3.72-1.08v-5l2.61-.75v6h5.76v2h-5.76v11.57c0,2.27,1.22,3.2,3.57,3.2.48,0,1,0,1.45-.07Z"/></g><g id="g96"><path id="path98" class="cls-3" d="M232.49,164.57H214.18a.85.85,0,0,0-.85.86v8.95a.85.85,0,0,0,.85.85h7.14v11.12a21.44,21.44,0,0,1-6,.55c-5.23,0-12.54-1.91-12.54-18s7.61-18.18,14.75-18.18A29,29,0,0,1,228,152.35a.87.87,0,0,0,1-.84l2-8.65a.8.8,0,0,0-.33-.67c-.68-.49-4.88-2.84-15.49-2.84-12.22,0-24.76,5.2-24.76,30.2s14.35,28.72,26.45,28.72c10,0,16.09-4.28,16.09-4.28a.74.74,0,0,0,.28-.65V165.43a.86.86,0,0,0-.86-.86"/></g><g id="g100"><path id="path102" class="cls-3" d="M326.83,142.35a.84.84,0,0,0-.84-.86H315.68a.86.86,0,0,0-.86.86v19.92H298.76V142.35a.85.85,0,0,0-.85-.86H287.6a.85.85,0,0,0-.85.86v53.94a.86.86,0,0,0,.85.86h10.31a.86.86,0,0,0,.85-.86V173.22h16.07l0,23.07a.86.86,0,0,0,.85.86H326a.85.85,0,0,0,.85-.86Z"/></g><g id="g104"><path id="path106" class="cls-3" d="M251.94,149.43a6.65,6.65,0,1,0-6.65,6.71,6.67,6.67,0,0,0,6.65-6.71"/></g><g id="g108"><path id="path110" class="cls-3" d="M251.2,184.91V160a.86.86,0,0,0-.85-.86H240.08a1,1,0,0,0-.9,1v35.67c0,1.05.66,1.36,1.5,1.36h9.26c1,0,1.26-.5,1.26-1.38Z"/></g><g id="g112"><path id="path114" class="cls-3" d="M366,159.23H355.78a.86.86,0,0,0-.85.87v26.44a11.57,11.57,0,0,1-6.29,1.9c-3.69,0-4.66-1.67-4.66-5.28V160.1a.87.87,0,0,0-.86-.87H332.74a.86.86,0,0,0-.85.87v24.81c0,10.72,6,13.35,14.2,13.35a24,24,0,0,0,12.19-3.73,21.32,21.32,0,0,0,.38,2.2.89.89,0,0,0,.75.46l6.6,0a.86.86,0,0,0,.86-.86V160.1a.86.86,0,0,0-.85-.87"/></g><g id="g116"><path id="path118" class="cls-3" d="M389.93,188.41a12.24,12.24,0,0,1-5.95-1.72V169.61a13.63,13.63,0,0,1,5.28-1.71c3.69-.33,7.24.78,7.24,9.57,0,9.26-1.61,11.09-6.57,10.94M394,158a19.3,19.3,0,0,0-9.77,2.59V142.35a.85.85,0,0,0-.85-.86H373a.85.85,0,0,0-.85.86v53.94a.86.86,0,0,0,.85.86h7.17a.86.86,0,0,0,.75-.46,16.5,16.5,0,0,0,.43-2.49s4.23,4,12.23,4c9.4,0,14.78-4.76,14.78-21.39S399.78,158,394,158"/></g><g id="g120"><path id="path122" class="cls-3" d="M280.83,159.15H273.1V148.93c0-.38-.2-.58-.65-.58H261.9c-.41,0-.63.18-.63.58v10.55s-5.28,1.28-5.63,1.38a.85.85,0,0,0-.62.82v6.63a.86.86,0,0,0,.85.87h5.4v15.95c0,11.86,8.32,13,13.93,13a23.3,23.3,0,0,0,6.13-1,.79.79,0,0,0,.49-.77v-7.3a.88.88,0,0,0-.86-.86c-.45,0-1.6.18-2.79.18-3.8,0-5.08-1.76-5.08-4V169.18h7.73a.86.86,0,0,0,.85-.87V160a.85.85,0,0,0-.85-.86"/></g><g id="g124"><path id="path126" class="cls-3" d="M201.51,210.77a17.8,17.8,0,0,1,7.25,1.3v2.5a17.19,17.19,0,0,0-7.25-1.45c-6.11,0-8.3,5.24-8.3,12s2.19,12,8.3,12a17.34,17.34,0,0,0,7.25-1.45v2.49a17.8,17.8,0,0,1-7.25,1.3c-8.34,0-11-6.4-11-14.32s2.64-14.33,11-14.33"/></g><g id="g128"><path id="path130" class="cls-3" d="M218.55,229.64c-2.65.26-3.8,1.63-3.8,3.79,0,1.67.41,3.68,3.95,3.68a9,9,0,0,0,4.94-1.48v-6.48Zm.67-7.26a16.37,16.37,0,0,0-5.58.93v-2.23a14.88,14.88,0,0,1,5.58-1c5.58,0,7,2.53,7,6.25v12.73H224.8l-.56-1.49a9.76,9.76,0,0,1-5.62,1.86c-4.87,0-6.51-2.86-6.51-6s1.75-5.51,6.62-5.8l4.91-.3v-1c0-2.72-1-3.91-4.42-3.91"/></g><g id="g132"><path id="path134" class="cls-3" d="M253,225.54c0-2.42-1.42-3.16-3.54-3.16a9.63,9.63,0,0,0-5.06,1.23,7.81,7.81,0,0,1,.22,1.93v13.51h-2.6V225.54c0-2.42-1.41-3.16-3.53-3.16a9.35,9.35,0,0,0-4.84,1.12v15.55h-2.61v-18.6h1.46l.55,1.52a9.38,9.38,0,0,1,5.44-1.9c2.49,0,4.24.71,5.21,2.12a10.37,10.37,0,0,1,5.76-2.12c4,0,6.14,1.86,6.14,5.58v13.4H253Z"/></g><g id="g136"><path id="path138" class="cls-3" d="M273.13,229.75c0-3.69-.56-7.37-5-7.37a9.82,9.82,0,0,0-5.21,1.19v12.35a9.82,9.82,0,0,0,5.21,1.19c4.46,0,5-3.68,5-7.36M262.9,237.9v10.45h-2.61v-27.9h1.45l.56,1.52a10.67,10.67,0,0,1,5.81-1.9c6,0,7.62,4.32,7.62,9.68s-1.63,9.67-7.62,9.67a9.7,9.7,0,0,1-5.21-1.52"/></g><g id="g140"><path id="path142" class="cls-3" d="M282.62,234c0,2.42,1.41,3.16,3.72,3.16a9,9,0,0,0,5-1.19V220.45H294v18.6h-1.45l-.56-1.56a9.26,9.26,0,0,1-5.61,1.93c-4.43,0-6.33-2-6.33-5.58V220.45h2.61Z"/></g><g id="g144"><path id="path146" class="cls-3" d="M305,228.37c5.29.48,6.55,2.27,6.55,5.32,0,2.87-1.82,5.73-7.48,5.73a18.45,18.45,0,0,1-5.54-.93v-2.23a16.4,16.4,0,0,0,5.58.85c3.87,0,4.91-1.63,4.91-3.38s-.52-2.9-4.2-3.2c-5.4-.49-6.51-2.38-6.51-4.95s1.71-5.51,6.95-5.51a14.06,14.06,0,0,1,5.36.93v2.24a15.2,15.2,0,0,0-5.39-.86c-3.69,0-4.47,1.38-4.47,3.2,0,1.64.67,2.49,4.24,2.79"/></g><g id="g148"><path id="path150" class="cls-3" d="M431.22,228.37c5.28.48,6.55,2.27,6.55,5.32,0,2.87-1.82,5.73-7.48,5.73a18.39,18.39,0,0,1-5.54-.93v-2.23a16.4,16.4,0,0,0,5.58.85c3.87,0,4.91-1.63,4.91-3.38s-.52-2.9-4.2-3.2c-5.4-.49-6.52-2.38-6.52-4.95s1.72-5.51,7-5.51a14.06,14.06,0,0,1,5.36.93v2.24a15.22,15.22,0,0,0-5.4-.86c-3.68,0-4.46,1.38-4.46,3.2,0,1.64.67,2.49,4.24,2.79"/></g><g id="g152"><path id="path154" class="cls-3" d="M334,225.69H321.62v11h13.65v2.35H319.09V211.14h16.18v2.35H321.62v9.86H334Z"/></g><g id="g156"><path id="path158" class="cls-3" d="M339,239.05l6.89-9.56-6.52-9h3.09l4.91,7.29,4.92-7.29h3.08l-6.51,9,6.89,9.56h-3.09l-5.29-7.81-5.28,7.81Z"/></g><g id="g160"><path id="path162" class="cls-3" d="M372.48,229.75c0-3.69-.56-7.37-5-7.37a9.82,9.82,0,0,0-5.21,1.19v12.35a9.82,9.82,0,0,0,5.21,1.19c4.46,0,5-3.68,5-7.36m-10.23,8.15v10.45h-2.61v-27.9h1.45l.56,1.52a10.67,10.67,0,0,1,5.81-1.9c6,0,7.62,4.32,7.62,9.68s-1.63,9.67-7.62,9.67a9.7,9.7,0,0,1-5.21-1.52"/></g><g id="g164"><path id="path166" class="cls-3" d="M381,228.82h9.67c0-3.31-.19-6.44-4.47-6.44s-5.09,3.09-5.2,6.44m5.2-8.75c6.33,0,7.07,4.32,7.07,9.68v1.19H381c.14,3.23,1,6.17,5.2,6.17a14.23,14.23,0,0,0,6.14-1v2.23a15.05,15.05,0,0,1-6.14,1.12c-6.28,0-7.81-4.32-7.81-9.67s1.53-9.68,7.81-9.68"/></g><g id="g168"><path id="path170" class="cls-3" d="M408,222.68a7.06,7.06,0,0,0-2.23-.3,10.13,10.13,0,0,0-5.4,1.19v15.48h-2.6v-18.6h1.45l.56,1.56a10.1,10.1,0,0,1,6-1.94,13.74,13.74,0,0,1,2.23.19Z"/></g><g id="g172"><path id="path174" class="cls-3" d="M421.59,239.27a8.4,8.4,0,0,1-1.68.15c-3.08,0-6-1.41-6-5.06V222.49h-3.72v-1.15l3.72-1.08v-5l2.61-.75v6h5.76v2h-5.76v11.57c0,2.27,1.22,3.2,3.57,3.2.48,0,1,0,1.45-.07Z"/></g><g id="g176"><path id="path178" class="cls-4" d="M28.2,55c1.34-.13,2.45,0,2.47.25a.17.17,0,0,1-.06.12,5.25,5.25,0,0,1-2.33.59,5.08,5.08,0,0,1-2.39-.15.14.14,0,0,1-.08-.1c0-.27,1-.59,2.39-.71"/></g><g id="g180"><g id="g194"><g class="cls-5"><g id="g192" class="cls-6"><g id="g190"><path id="path188" class="cls-7" d="M220,267c0,4.7-44.9,8.51-100.28,8.51S19.42,271.65,19.42,267s44.89-8.51,100.27-8.51S220,262.25,220,267"/></g></g></g></g></g><g id="g196"><path id="path198" class="cls-4" d="M45.26,265.37l-12-129Z"/></g><g id="g200"><path id="path202" class="cls-8" d="M44.21,201.14l6.07,65.47L30.67,55.2H30.6a5.25,5.25,0,0,1-2.33.59,5.37,5.37,0,0,1-2.39-.15h-.07L28,79.36l-.17-2.71s6.5,70.61,16.37,124.49"/></g><g id="g204"><path id="path206" class="cls-9" d="M28,79.36l5.28,57L28,79.36Z"/></g><g id="g208"><path id="path210" class="cls-10" d="M50.28,266.61l-6.07-65.47C34.34,147.26,27.84,76.65,27.84,76.65L28,79.36l5.28,57,12,129a17.93,17.93,0,0,1,5,1.24"/></g><g id="g212"><path id="path214" class="cls-11" d="M31.17,267.77a10.5,10.5,0,0,1,1.16-.7c.4-.21.81-.41,1.23-.59s.83-.35,1.26-.5.87-.28,1.31-.41a19.87,19.87,0,0,1,2.68-.54,19.39,19.39,0,0,1,2.74-.17q.69,0,1.38.06a12.49,12.49,0,0,1,1.37.16c.46.07.91.15,1.36.25s.9.22,1.34.35.88.28,1.31.44.86.33,1.27.52.83.39,1.24.6.8.45,1.2.68l-.41-.05c.27-.07.51-.12.77-.17l.76-.12a13.3,13.3,0,0,1,3.09-.06,9.88,9.88,0,0,1,1.52.27,8.74,8.74,0,0,1,1.47.49,7.46,7.46,0,0,1,.69.35c.22.13.44.26.65.41a6.64,6.64,0,0,1,.6.48,6.75,6.75,0,0,1,.54.53l.25.29.23.3a6.18,6.18,0,0,1,.4.64,5.39,5.39,0,0,0-.5-.56,6.51,6.51,0,0,0-.54-.51,7.55,7.55,0,0,0-1.2-.83,7.83,7.83,0,0,0-1.33-.57,8.69,8.69,0,0,0-1.4-.35,12.61,12.61,0,0,0-2.88-.1q-.72.06-1.44.18l-.71.14-.68.18-.2.06-.2-.11c-.39-.21-.78-.42-1.17-.61s-.79-.38-1.19-.56l-.61-.25-.61-.23c-.41-.15-.82-.29-1.24-.41s-.84-.25-1.27-.34-.85-.19-1.28-.26-.86-.14-1.3-.19-.87-.08-1.3-.1-.88,0-1.32,0-.88,0-1.31.05a23.33,23.33,0,0,0-2.63.33c-.43.08-.86.17-1.29.28s-.87.21-1.29.34-.85.27-1.27.42-.84.32-1.25.51"/></g><g id="g216"><path id="path218" class="cls-11" d="M54.13,268.31a3.53,3.53,0,0,1,.13-.48,7.23,7.23,0,0,1,.57-1.21,6.16,6.16,0,0,1,.51-.74,6.63,6.63,0,0,1,.67-.76l.19-.18.2-.18c.14-.12.29-.23.44-.34a7.7,7.7,0,0,1,1-.59l.25-.12.26-.11a5.55,5.55,0,0,1,.52-.2,7.11,7.11,0,0,1,1.06-.26,5.94,5.94,0,0,1,1-.1h.47l.43,0c.28,0,.53.06.75.1l.56.12.36.11.12,0h-.13l-.37,0-.56,0c-.22,0-.46,0-.72.07l-.41,0-.21,0-.22,0c-.3,0-.6.12-.91.2l-.47.14-.24.08a1.57,1.57,0,0,0-.23.09l-.47.19-.24.1-.22.12a8.42,8.42,0,0,0-.88.51,9.72,9.72,0,0,0-.8.59,8.4,8.4,0,0,0-.69.62c-.22.2-.41.41-.59.6s-.33.39-.47.56l-.34.44-.21.3-.07.11"/></g><g id="g220"><path id="path222" class="cls-11" d="M31.17,267.77a10.5,10.5,0,0,1,1.16-.7c.4-.21.81-.41,1.23-.59s.83-.35,1.26-.5.87-.28,1.31-.41a19.87,19.87,0,0,1,2.68-.54,19.39,19.39,0,0,1,2.74-.17q.69,0,1.38.06a12.49,12.49,0,0,1,1.37.16c.46.07.91.15,1.36.25s.9.22,1.34.35.88.28,1.31.44.86.33,1.27.52.83.39,1.24.6.8.45,1.2.68l-.41-.05c.27-.07.51-.12.77-.17l.76-.12a13.3,13.3,0,0,1,3.09-.06,9.88,9.88,0,0,1,1.52.27,8.74,8.74,0,0,1,1.47.49,7.46,7.46,0,0,1,.69.35c.22.13.44.26.65.41a6.64,6.64,0,0,1,.6.48,6.75,6.75,0,0,1,.54.53l.25.29.23.3a6.18,6.18,0,0,1,.4.64,5.39,5.39,0,0,0-.5-.56,6.51,6.51,0,0,0-.54-.51,7.55,7.55,0,0,0-1.2-.83,7.83,7.83,0,0,0-1.33-.57,8.69,8.69,0,0,0-1.4-.35,12.61,12.61,0,0,0-2.88-.1q-.72.06-1.44.18l-.71.14-.68.18-.2.06-.2-.11c-.39-.21-.78-.42-1.17-.61s-.79-.38-1.19-.56l-.61-.25-.61-.23c-.41-.15-.82-.29-1.24-.41s-.84-.25-1.27-.34-.85-.19-1.28-.26-.86-.14-1.3-.19-.87-.08-1.3-.1-.88,0-1.32,0-.88,0-1.31.05a23.33,23.33,0,0,0-2.63.33c-.43.08-.86.17-1.29.28s-.87.21-1.29.34-.85.27-1.27.42-.84.32-1.25.51"/></g><g id="g224"><path id="path226" class="cls-11" d="M54.13,268.31a3.53,3.53,0,0,1,.13-.48,7.23,7.23,0,0,1,.57-1.21,6.16,6.16,0,0,1,.51-.74,6.63,6.63,0,0,1,.67-.76l.19-.18.2-.18c.14-.12.29-.23.44-.34a7.7,7.7,0,0,1,1-.59l.25-.12.26-.11a5.55,5.55,0,0,1,.52-.2,7.11,7.11,0,0,1,1.06-.26,5.94,5.94,0,0,1,1-.1h.47l.43,0c.28,0,.53.06.75.1l.56.12.36.11.12,0h-.13l-.37,0-.56,0c-.22,0-.46,0-.72.07l-.41,0-.21,0-.22,0c-.3,0-.6.12-.91.2l-.47.14-.24.08a1.57,1.57,0,0,0-.23.09l-.47.19-.24.1-.22.12a8.42,8.42,0,0,0-.88.51,9.72,9.72,0,0,0-.8.59,8.4,8.4,0,0,0-.69.62c-.22.2-.41.41-.59.6s-.33.39-.47.56l-.34.44-.21.3-.07.11"/></g><g id="g228"><path id="path230" class="cls-11" d="M31.17,267.77a10.5,10.5,0,0,1,1.16-.7c.4-.21.81-.41,1.23-.59s.83-.35,1.26-.5.87-.28,1.31-.41a19.87,19.87,0,0,1,2.68-.54,19.39,19.39,0,0,1,2.74-.17q.69,0,1.38.06a12.49,12.49,0,0,1,1.37.16c.46.07.91.15,1.36.25s.9.22,1.34.35.88.28,1.31.44.86.33,1.27.52.83.39,1.24.6.8.45,1.2.68l-.41-.05c.27-.07.51-.12.77-.17l.76-.12a13.3,13.3,0,0,1,3.09-.06,9.88,9.88,0,0,1,1.52.27,8.74,8.74,0,0,1,1.47.49,7.46,7.46,0,0,1,.69.35c.22.13.44.26.65.41a6.64,6.64,0,0,1,.6.48,6.75,6.75,0,0,1,.54.53l.25.29.23.3a6.18,6.18,0,0,1,.4.64,5.39,5.39,0,0,0-.5-.56,6.51,6.51,0,0,0-.54-.51,7.55,7.55,0,0,0-1.2-.83,7.83,7.83,0,0,0-1.33-.57,8.69,8.69,0,0,0-1.4-.35,12.61,12.61,0,0,0-2.88-.1q-.72.06-1.44.18l-.71.14-.68.18-.2.06-.2-.11c-.39-.21-.78-.42-1.17-.61s-.79-.38-1.19-.56l-.61-.25-.61-.23c-.41-.15-.82-.29-1.24-.41s-.84-.25-1.27-.34-.85-.19-1.28-.26-.86-.14-1.3-.19-.87-.08-1.3-.1-.88,0-1.32,0-.88,0-1.31.05a23.33,23.33,0,0,0-2.63.33c-.43.08-.86.17-1.29.28s-.87.21-1.29.34-.85.27-1.27.42-.84.32-1.25.51"/></g><g id="g232"><path id="path234" class="cls-11" d="M54.13,268.31a3.53,3.53,0,0,1,.13-.48,7.23,7.23,0,0,1,.57-1.21,6.16,6.16,0,0,1,.51-.74,6.63,6.63,0,0,1,.67-.76l.19-.18.2-.18c.14-.12.29-.23.44-.34a7.7,7.7,0,0,1,1-.59l.25-.12.26-.11a5.55,5.55,0,0,1,.52-.2,7.11,7.11,0,0,1,1.06-.26,5.94,5.94,0,0,1,1-.1h.47l.43,0c.28,0,.53.06.75.1l.56.12.36.11.12,0h-.13l-.37,0-.56,0c-.22,0-.46,0-.72.07l-.41,0-.21,0-.22,0c-.3,0-.6.12-.91.2l-.47.14-.24.08a1.57,1.57,0,0,0-.23.09l-.47.19-.24.1-.22.12a8.42,8.42,0,0,0-.88.51,9.72,9.72,0,0,0-.8.59,8.4,8.4,0,0,0-.69.62c-.22.2-.41.41-.59.6s-.33.39-.47.56l-.34.44-.21.3-.07.11"/></g><g id="g236"><path id="path238" class="cls-9" d="M27.36,65,33,125.57,27.36,65Z"/></g><g id="g240"><path id="path242" class="cls-12" d="M38.63,177.71a103.16,103.16,0,0,0-22.92,7A25.81,25.81,0,0,0,20.18,192,43.16,43.16,0,0,1,41,181.56Z"/></g><g id="g244"><path id="path246" class="cls-12" d="M30.32,82.75a103.44,103.44,0,0,0-22.92,7,25.77,25.77,0,0,0,4.47,7.33A43.16,43.16,0,0,1,32.71,86.6Z"/></g><g id="g248"><path id="path250" class="cls-13" d="M10.39,88.46s16.81-2.86,18.44-.22l-.26-2.91S27,81.67,10.39,88.46"/></g><g id="g252"><path id="path254" class="cls-13" d="M20.75,182.62s16.82-2.86,18.44-.22l-.25-2.91s-1.55-3.66-18.19,3.13"/></g><g id="g256"><path id="path258" class="cls-14" d="M27.41,81a102.84,102.84,0,0,0-23.95-.07,25.83,25.83,0,0,0,2.12,8.31,43.17,43.17,0,0,1,23-3.86Z"/></g><g id="g260"><path id="path262" class="cls-14" d="M40.62,176a103.16,103.16,0,0,0-23.72-3.36,25.73,25.73,0,0,0,1,8.52,43.24,43.24,0,0,1,23.3-.66Z"/></g><g id="g264"><path id="path266" class="cls-15" d="M33.68,179.29q1.13.09,2.28.24l-1.07-4.8-1.75-.35a19.57,19.57,0,0,1,.54,4.91"/></g><g id="g268"><path id="path270" class="cls-15" d="M24.8,80.66a9.24,9.24,0,0,1,.38,4.43l2.81.18-1.16-4.4Z"/></g><g id="g272"><path id="path274" class="cls-16" d="M29.93,60.05a21.93,21.93,0,0,1,5.35.89C65.83,80.25,95.66,81.43,125.5,82.85c33.47,1.61,66.94,2.9,101.42,29.83-32.24-.72-63.47,22.43-94.7,46.08s-62.47,48.33-94.71,50.86q-3.36-39-6.72-78.12-3-35.27-6.05-70.65a17.25,17.25,0,0,1,5.19-.8"/></g><g id="g10"><g id="g276"><g id="g290"><g class="cls-17"><g id="g288" class="cls-18"><g id="g286"><path id="path284" class="cls-19" d="M84.75,96.89c-17.88.76-31,13.41-29,31.07,1.61,14.13,12.43,27.3,25.84,31.52,1.66.29,2.14-.71,2-1.55s-.4-3.29-.72-6c-8.83,1.95-11.41-4-11.41-3.94-1.91-3.75-4.16-4.85-4.16-4.85-3.2-2.16,0-1.94,0-1.94,3.31.4,5.38,3.51,5.38,3.51,3.47,5,8,3.61,9.79,2.77a6.09,6.09,0,0,1,1.57-4.31c-7.3-.66-15.25-3.74-16.65-16a10.75,10.75,0,0,1,2.39-8.47,11.54,11.54,0,0,1-.65-8.46s2.65-.74,9.34,3.38a33.68,33.68,0,0,1,8-1.26,34.88,34.88,0,0,1,8.23.71c5.69-4.51,8.49-3.88,8.49-3.87a11.56,11.56,0,0,1,1.29,8.45,12.83,12.83,0,0,1,4.29,8.33c1.4,12.3-5.83,15.64-12.94,16.8a8.14,8.14,0,0,1,2.87,5.81c.49,4.28.84,7.73,1,8.79a1.71,1.71,0,0,0,2.4,1.4,30.74,30.74,0,0,0,18.57-32.12c-2-17.77-18-30.49-35.93-29.78"/></g></g></g></g></g><g id="g12"><g id="g292"><g id="g306"><g class="cls-20"><g id="g304" class="cls-21"><g id="g302"><path id="path300" class="cls-19" d="M42.9,65.4a123.5,123.5,0,0,0,15.72,7.11c-18,11.6-18.19,39.47-17.94,46.07l8,89.28c-1.22.28-2.45.53-3.67.76l-.2,0L32.11,60.23c1,.17,2.32.49,3.17.71,1.87,1.18,4.28,2.67,7.62,4.46"/></g></g></g></g></g><g id="g14"><g id="g308"><g id="g322"><g class="cls-22"><g id="g320" class="cls-21"><g id="g318"><path id="path316" class="cls-19" d="M132.22,158.82c-20.61,15.6-41.22,31.66-62.12,41.5,34.62-16.31,62.76-54.23,90.15-83.44a55.11,55.11,0,0,1,45.94-17.57,117.74,117.74,0,0,1,20.73,13.43c-32.24-.72-63.47,22.43-94.7,46.08"/></g></g></g></g></g><g id="g324"><path id="path326" class="cls-23" d="M35.81,64.14l.46,0,.4,4.6-.46,0Zm.8,9.2.46,0,.41,4.6-.46,0Zm.81,9.2.46,0,.4,4.6-.46,0Zm.8,9.2.46,0,.41,4.6-.46,0Zm.81,9.2.46,0,.4,4.6-.46,0Zm.8,9.2.46,0,.41,4.6-.46,0Zm.81,9.2.46,0,.4,4.6-.46,0Zm.8,9.2.46,0,.4,4.6-.46,0Zm.81,9.2.46,0,.4,4.6-.46,0Zm.8,9.19.46,0,.4,4.6-.46,0Zm.81,9.2.46,0,.4,4.6-.46,0Zm.8,9.2.46,0,.4,4.6-.46,0Zm.81,9.2.46,0,.4,4.6-.46,0Zm.8,9.2.46,0,.4,4.6-.46,0Zm.81,9.2.46,0,.4,4.6-.46,0Zm.8,9.2.46,0,.4,4.6-.46,0Z"/></g></g></g></g></g></svg>