<svg id="Layer_1" data-name="Layer 1" xmlns="http://www.w3.org/2000/svg" xmlns:xlink="http://www.w3.org/1999/xlink" viewBox="0 0 443 344"><defs><style>.cls-1,.cls-5,.cls-9{fill:#fff;}.cls-2,.cls-4{fill:none;}.cls-3{clip-path:url(#clip-path);}.cls-4,.cls-5,.cls-7{stroke:#17171d;}.cls-4{stroke-linecap:square;}.cls-4,.cls-5,.cls-9{stroke-linejoin:round;stroke-width:4.69px;}.cls-5,.cls-9{stroke-linecap:round;}.cls-6{mask:url(#mask);}.cls-7{fill:#ec3750;stroke-width:9.39px;}.cls-8{fill:#17171d;}.cls-9{stroke:#252429;}</style><clipPath id="clip-path"><rect class="cls-2" y="55.81" width="438" height="246.38"/></clipPath><mask id="mask" x="114.49" y="87.1" width="327.42" height="113.54" maskUnits="userSpaceOnUse"><g id="b"><path class="cls-1" d="M148.29,98.52c2.24-1.5,35-21.56,111.87,15.71,72.62,35.2,146.17-5.31,159.39-13.42.44-.27,1.17.43.93.89l-13.36,25.74a.61.61,0,0,0,.53.9c3.45.06,15.46.25,28.92.13a.59.59,0,0,1,.46,1C428,138,363.92,196.16,313.83,196c-54-.24-83.22-13-117.73-22.68-34-9.54-53.26-12.89-74.09-9.52,0,0,20.67-50.32,25.25-62.53C147.9,99.51,148.27,98.53,148.29,98.52Z"/></g></mask></defs><title>Sahyadri hackclub</title><g class="cls-3"><path class="cls-1" d="M-56.31,180.54s2.65,3.33,7.12,8.67c15.94,19,37.25,52.2,61.48,63.21,31,14.1,63.25,13.06,63.25,13.06S97.26,153.06,98.37,154.83,60.32,139.4,39.68,134.15s-44-25.11-50.32-31.41"/><path class="cls-4" d="M-56.31,180.77s37.75,57.6,68.83,71.65S75.93,265.1,75.93,265.1l27-109.42S37.8,143.08-10.41,102.74"/><path class="cls-5" d="M100.11,154.51c-7.17-.52-22.46-2.33-35.84,49.11s4.65,61.94,11,60.72,18.47-6.08,38.16-52.76S107.28,155,100.11,154.51Z"/><g class="cls-6"><path class="cls-7" d="M148.29,98.52c2.24-1.5,35-21.56,111.87,15.71,72.62,35.2,146.17-5.31,159.39-13.42.44-.27,1.17.43.93.89l-13.36,25.74a.61.61,0,0,0,.53.9c3.45.06,15.46.25,28.92.13a.59.59,0,0,1,.46,1C428,138,363.92,196.16,313.83,196c-54-.24-83.22-13-117.73-22.68-34-9.54-53.26-12.89-74.09-9.52,0,0,20.67-50.32,25.25-62.53C147.9,99.51,148.27,98.53,148.29,98.52Z"/></g><path class="cls-1" d="M167.51,111.8a169.28,169.28,0,0,1-5.8,22.86c-6.94,16.39,4.79,13.76,8.18,7,2-3.75,4.06-7.83,4.06-7.83l10.52,4.08s-.87,4.8-1.76,8.76c-3.35,10.27,6.3,9.08,9,1.49,1.2-3.9,6.8-20.2,8.37-28.83,2.32-5.51-5.53-10.59-9.13-1.68-1.92,3.28-5,10.46-5,10.46s-8.68-3.25-8.78-3.59c-.33-.89.74-3.17.8-5.3C177.46,104.39,168.64,105.57,167.51,111.8Z"/><path class="cls-1" d="M214.76,122.81c2.71-5.33,5.79-6.21,8.07-6,1,.08,2.33,2.09,3.34,4,3.31,12.71-2.82,36.05-3.89,37.61-3.69,5.91-10.11,4.76-7.64-1.63,1.15-3.88,2.39-7.41,2.39-7.41l-8.32-1c-6.6,12.68-12.45,7.33-9,1.86,3.65-6.42,11.44-20.47,15.09-27.55Zm-2.82,16.32,8.2,1.44s2.35-14.44-.22-12.93Z"/><path class="cls-1" d="M256.63,135.19c1.1-3.05-1.13-10-9-8.87-11.43,0-15.47,20-15.47,20s-1.94,9.69,1,16.32c2.7,6.38,9.31,6.43,10.59,6.6,7.51-2.23,5-7.24,3.68-7.4-1.63-.09-3.84.17-5.63-1.3-3-2.46-2.45-8.66-1.78-12,1.58-5.6,5-16.73,10.47-14,3.25,4.19,5.55,2.28,6.14.59Z"/><path class="cls-1" d="M263.3,134.72c-2,6.13.45,12.6-4.62,24.26-1.21,2.85-4.17,8.07-4.53,8.81-2.8,5.26,2.84,8.39,9.1-.79,1.52-2.1,3.21-7.49,3.21-7.49l2.71-.29s2.32,10.42,2.84,14.89c.57,4.3,8.18,6.79,8.33-1.66a47.25,47.25,0,0,0-3.13-11.8s-1.22-3.65-2.42-4.13c0,0,8.54-8.43,9.37-11.71.86-3.43-.68-5.83-7.36-.25s-7.45,7.38-7.45,7.38a61.73,61.73,0,0,0,1.48-12.43c.6-5.67-5.77-9.82-7.53-4.79Z"/><path class="cls-1" d="M306.44,145.83c-2.87,2.82-4.69,8.13-4.52,16.17.34,12,5.29,18.91,13.78,17.58s6.52-7.47,5.74-7.68c-.62-.16-.78-.88-4.26.41s-6.11-.25-8.28-5.58c-1.43-3.61-2.19-10.62.45-14.52a5,5,0,0,1,1.92-1.7,3.17,3.17,0,0,1,3.44.22c4.37,3.2,5.25-.32,3.69-3.45C315.33,142.9,311.23,142,306.44,145.83Z"/><path class="cls-1" d="M325.37,146.31c0-4.55,4.7-8,6.31,2.15,2,6.59,1.43,19.31,2.41,20.5s8.28-.43,10.25-1.09,5.61.23,4.78,2.21c-.67,2-2.56,2.2-2.95,2.43s-16.89,5.05-17.49,1.79-.63-4.75-1.23-10.29S325.39,150.87,325.37,146.31Z"/><path class="cls-1" d="M345.73,142.09c-.34-3.29,3-5.29,5-1.75,1.49,2.75,3.18,14.66,5.61,19.68,1.34,2,4.1,2.41,5.41.55,1.56-2.8.48-9.83-.45-15.47-.66-2.7-1.43-4.77-1.39-6.27.62-5.08,4.68-3.86,6.56,1.35,1.56,5.8,3.17,15.17,2.32,18.5-.8,3.17-1.64,7.17-5.76,8.13-1.06.23-10,1.47-13-8.27-3-10.21-3.9-13.16-4.25-16.45Z"/><path class="cls-1" d="M373.36,131.44c5.48-3.28,9.58-4.39,12.78-3.22,1.87,1.16,3.07,4.33,2.55,7.05a22.41,22.41,0,0,1-1.58,4.3c3.25.34,5.61,3.59,6.2,7.83s-3.4,8.2-10.83,10.64c-2.51.69-5.16.67-5.28-.2-.07-1.7-6.28-22-6.28-22-.19-1.22-.85-2.57,2.44-4.41Zm2.25,3.62,2.71,6.42s6.65-2.64,5.88-6.2S379.25,133.82,375.61,135.06Zm3.63,11.37s1.84,7.88,1.77,7.53c0-.52,9.69-2.41,7.64-7.49S379.24,146.43,379.24,146.43Z"/><path class="cls-8" d="M147.83,99.61l-57.1,141.3h5.78l55.15-138.17Z"/><path class="cls-9" d="M101.68,190.53c2.65,1.11,17.81,1.22,14.82,6.42s7.85,13.16,13.83,3-2.11-23.34-14.27-20S101.68,190.53,101.68,190.53Z"/><path class="cls-9" d="M92.29,215.56c2.66,1.1,17.81,1.22,14.82,6.42s7.86,13.16,13.83,3-2.1-23.34-14.27-20S92.29,215.56,92.29,215.56Z"/><path class="cls-9" d="M86,242.15c2.65,1.11,17.8,1.22,14.82,6.42s7.85,13.16,13.82,3-2.1-23.33-14.27-20S86,242.15,86,242.15Z"/></g></svg>