<?xml version="1.0" encoding="utf-8"?>
<!-- Generator: Adobe Illustrator 22.0.1, SVG Export Plug-In . SVG Version: 6.00 Build 0)  -->
<svg version="1.1" id="Layer_2_1_" xmlns="http://www.w3.org/2000/svg" xmlns:xlink="http://www.w3.org/1999/xlink" x="0px" y="0px"
	 viewBox="0 0 442.8 344" style="enable-background:new 0 0 442.8 344;" xml:space="preserve">
<style type="text/css">
	.st0{fill:#12DD72;}
</style>
<title>logo</title>
<path class="st0" d="M306.2,104.4c0,0.9,0,1.8,0.1,2.7c-0.5,17-6.1,33.5-16.2,47.3c-3.8,5.3-8.3,10.1-13.2,14.4
	c-32,27.7-79.6,27.7-111.6,0c5-4.3,9.4-9.1,13.3-14.4c27.6,23.5,69,20.2,92.6-7.4c9.1-10.7,14.5-24,15.5-38l0,0
	c0.1-1.5,0.2-3,0.2-4.6c0-1.5,0-3.1-0.2-4.6l0,0c-0.7-10.7-4.1-21-9.8-30.1c-19.2-30.8-59.7-40.2-90.5-21.1
	c-8.5,5.3-15.8,12.5-21.1,21.1c-5.7,9.1-9,19.4-9.7,30.1l0,0c-0.1,1.5-0.2,3-0.2,4.6c0,1.5,0.1,3.1,0.2,4.6l0,0
	c-2.5,25.4-25.2,44-50.7,41.5c-25.4-2.5-44-25.2-41.5-50.7c1.9-18.9,15.1-34.7,33.3-39.9c5.3-1.5,10.9,1.6,12.4,6.9
	c0.2,0.9,0.4,1.8,0.4,2.7v0.1c0,4.5-3,8.5-7.3,9.7c-13.9,4.1-21.9,18.6-17.8,32.5c3.1,10.6,12.5,18.1,23.5,18.8
	c14.1,0.8,26.4-9.4,28-23.4c0.2-1.8,0.2-3.6,0-5.4c0.5-17,6.1-33.5,16.2-47.3c3.8-5.3,8.3-10.1,13.2-14.4c32-27.7,79.6-27.7,111.6,0
	c10,8.7,17.9,19.5,22.9,31.8c3.9,9.5,6.1,19.7,6.4,30C306.3,102.7,306.2,103.6,306.2,104.4z"/>
<path class="st0" d="M267.7,99.9c-2.5-25.5-25.2-44-50.7-41.5c-22,2.2-39.3,19.5-41.5,41.5l0,0c0.1,1.5,0.2,3,0.2,4.6s0,3.1-0.2,4.6
	l0,0c-0.7,10.7-4.1,21-9.7,30.1c-19.1,30.8-59.6,40.3-90.4,21.2c-30.8-19.1-40.3-59.6-21.2-90.4C64.6,53.1,82,41.9,101.5,39.3
	c4.8-0.7,8.5-4.8,8.5-9.7l0,0c0-5.4-4.4-9.8-9.8-9.8c-0.4,0-0.8,0-1.2,0.1C52.3,26,19.4,68.8,25.5,115.4
	c6.1,46.7,48.8,79.5,95.5,73.4c30.2-3.9,56-23.7,67.7-51.8c18,18.1,47.3,18.2,65.5,0.2c7.6-7.6,12.4-17.6,13.4-28.3
	c-0.1-1.5-0.1-3-0.1-4.6C267.5,102.9,267.5,101.4,267.7,99.9z M222.4,130.6c-14.5,0.5-26.6-10.9-27-25.3
	c-0.5-14.5,10.9-26.6,25.3-27c14.5-0.5,26.6,10.9,27,25.3c0,0.6,0,1.2,0,1.7C247.3,119.1,236.2,130.2,222.4,130.6L222.4,130.6z"/>
<path class="st0" d="M379.1,103.8c0.3,20.9-13.4,39.4-33.5,45.2c-5.3,1.5-10.9-1.6-12.4-6.9c-0.3-0.9-0.4-1.8-0.4-2.8l0,0
	c0-4.5,3-8.5,7.4-9.7C354,125.5,362,111,358,97.1c-3.2-11.1-13.4-18.8-25-18.9c-1.6,0-3.2,0.1-4.8,0.4l-0.6,0.1
	c-11.3,2.2-19.9,11.5-21.2,23c-0.3-10.3-2.5-20.4-6.4-29.9c18-18.1,47.3-18.2,65.5-0.2C374,80.2,378.9,91.7,379.1,103.8L379.1,103.8
	z"/>
<path class="st0" d="M418,104.4c0,42.8-31.8,79-74.2,84.5c-5.4,0.7-10.2-3.1-10.9-8.5c-0.1-0.4-0.1-0.8-0.1-1.2l0,0
	c0-4.9,3.6-9,8.5-9.7c36-4.7,61.3-37.6,56.7-73.6s-37.6-61.3-73.6-56.7c-12.6,1.6-24.5,6.9-34.2,15.1c-3.8-5.3-8.3-10.1-13.2-14.4
	c35.6-30.8,89.4-27,120.2,8.6C410.6,64.2,418,84,418,104.4z"/>
<path class="st0" d="M142.9,300.4c0,3.2-0.6,6.4-1.9,9.3c-1.2,2.9-2.9,5.5-5.1,7.7c-2.2,2.2-4.8,4-7.6,5.2c-2.9,1.3-6.1,2-9.3,2h-35
	c-2.1,0-4.2-0.8-5.6-2.3c-3.1-3-3.1-8-0.1-11.1c0,0,0.1-0.1,0.1-0.1c1.5-1.5,3.5-2.4,5.6-2.3h34.7c2.2,0,4.4-0.9,5.9-2.5
	c1.6-1.6,2.5-3.7,2.5-5.9c0-2.3-0.8-4.5-2.5-6.1c-1.5-1.6-3.7-2.5-5.9-2.5h-16.5c-3.3,0-6.5-0.6-9.5-1.9
	c-5.8-2.5-10.5-7.1-12.9-12.9c-2.5-6.1-2.5-12.9,0-19c1.2-2.9,3-5.5,5.2-7.7c2.2-2.2,4.8-4,7.7-5.3c3-1.3,6.2-2,9.4-2h16.1
	c2.1,0,4.2,0.8,5.6,2.3c3.1,3,3.1,8,0.1,11.1c0,0-0.1,0.1-0.1,0.1c-1.5,1.5-3.5,2.4-5.6,2.4h-16.2c-2.2,0.1-4.3,1-5.8,2.6
	c-3.2,3.4-3.2,8.7,0,12c1.5,1.6,3.7,2.6,6,2.5h16.5c3.3,0,6.5,0.6,9.5,2c2.9,1.3,5.5,3,7.7,5.2c2.2,2.2,4,4.8,5.2,7.7
	C142.3,294,143,297.2,142.9,300.4z"/>
<path class="st0" d="M184.5,243.9c18.8-3.1,37.2,7.2,44.4,24.8c3.6,9,4,19,0.9,28.2c-1.4,4.1-3.4,7.9-5.9,11.3
	c-4.1,5.5-9.5,9.9-15.7,12.7c-6.2,2.9-13,4.2-19.8,3.8c-3.5-0.3-7-1-10.4-2.1c-6.7-2.3-12.6-6.3-17.3-11.5c-2.4-2.6-4.4-5.6-6-8.7
	c-1.5-3.1-2.6-6.4-3.4-9.8c-0.7-3.3-1-6.8-0.8-10.2c0.2-3.4,0.7-6.8,1.7-10.1c1-3.3,2.4-6.5,4.2-9.4c0.6-1.2,1.3-2.3,2.1-3.3h0.1
	c3.1-4.2,6.9-7.6,11.4-10.2C174.6,246.6,179.4,244.8,184.5,243.9z M211.8,298.2c3.5-5.2,5-11.5,4.2-17.8c-0.4-2.9-1.4-5.7-2.8-8.2
	c-1.7-3-3.9-5.7-6.6-7.9c-2.7-2.2-5.8-3.7-9.1-4.6c-3.3-0.9-6.7-1.1-10.1-0.6c-3.4,0.5-6.7,1.7-9.6,3.6c-3.8,2.4-6.8,5.8-8.9,9.8
	c-2.1,4-3.1,8.4-2.8,12.9c0.1,3.4,1.1,6.8,2.7,9.9c0.4,0.8,0.8,1.5,1.2,2.3c0.4,0.8,0.8,1.6,1.3,2.3c-0.8-1.3-1.5-2.6-2.1-3.9
	c1.4,2.4,3.1,4.7,5.2,6.5c2.1,1.9,4.5,3.5,7.1,4.6c2.7,1.2,5.6,1.8,8.5,2c2.9,0.1,5.8-0.3,8.6-1.2c2.7-0.8,5.2-2.1,7.5-3.8
	C208.3,302.5,210.2,300.5,211.8,298.2L211.8,298.2z"/>
<path class="st0" d="M300.5,300.4c0,3.2-0.7,6.4-1.9,9.3c-1.2,2.9-2.9,5.5-5.1,7.7c-2.2,2.2-4.8,4-7.6,5.2c-2.9,1.3-6.1,2-9.3,2
	h-34.9c-2.1,0-4.2-0.8-5.6-2.3c-3.1-3-3.1-8-0.1-11.1c0,0,0.1-0.1,0.1-0.1c1.5-1.5,3.5-2.4,5.6-2.3h34.7c2.2,0,4.4-0.9,5.9-2.5
	c1.6-1.6,2.5-3.7,2.5-5.9c0-2.3-0.8-4.5-2.5-6.1c-1.5-1.6-3.7-2.5-5.9-2.5h-16.5c-3.3,0-6.5-0.6-9.5-1.9
	c-5.8-2.5-10.5-7.1-12.9-12.9c-2.5-6.1-2.5-12.9,0-19c1.2-2.9,3-5.5,5.2-7.7c2.2-2.2,4.8-4,7.7-5.3c3-1.3,6.2-2,9.4-2h16.1
	c2.1,0,4.2,0.8,5.6,2.3c3.1,3,3.1,8,0.1,11.1c0,0-0.1,0.1-0.1,0.1c-1.5,1.5-3.5,2.4-5.7,2.3h-16.2c-2.2,0.1-4.3,1-5.8,2.6
	c-3.2,3.4-3.2,8.7,0,12c1.5,1.6,3.7,2.6,6,2.5h16.5c3.3,0,6.5,0.6,9.5,2c2.9,1.3,5.5,3,7.7,5.2c2.2,2.2,3.9,4.8,5.2,7.7
	C299.8,293.9,300.5,297.2,300.5,300.4z"/>
<path class="st0" d="M367.3,311.3c1.5,1.5,2.3,3.5,2.3,5.6c0,4.3-3.4,7.8-7.7,7.9c0,0-0.1,0-0.1,0h-9.4c-5.4,0-10.8-1.1-15.8-3.2
	c-4.8-2.1-9.2-5-13-8.7c-3.7-3.7-6.7-8.1-8.8-12.9c-4.3-10.1-4.3-21.5,0-31.7c2.1-4.8,5.1-9.2,8.8-12.9c3.7-3.7,8.1-6.7,13-8.8
	c5-2.2,10.3-3.3,15.8-3.2h9.4c4.3,0,7.8,3.4,7.9,7.7c0,0,0,0.1,0,0.1c0,2.1-0.8,4.1-2.3,5.6c-1.4,1.5-3.5,2.4-5.6,2.3h-9.4
	c-3.3,0-6.6,0.6-9.7,2c-2.9,1.3-5.6,3.1-7.9,5.3c-2.3,2.3-4.1,4.9-5.4,7.9c-1.3,3-2,6.3-2,9.6c0,6.6,2.6,13,7.3,17.7
	c2.3,2.2,5,4.1,7.9,5.3c3.1,1.3,6.4,2,9.7,2h9.4C363.9,308.9,365.9,309.8,367.3,311.3z"/>
</svg>
